<svg width="24" height="24" fill="none" xmlns="http://www.w3.org/2000/svg">
    <path d="M17.531 1.839c-1.996 0-3.746.89-5.06 2.574A8.52 8.52 0 0 0 12 5.08a8.51 8.51 0 0 0-.47-.667c-1.315-1.684-3.065-2.575-5.061-2.575C2.697 1.838 0 4.996 0 8.787c0 4.332 3.551 8.416 11.514 13.24a.937.937 0 0 0 .972 0C20.449 17.202 24 13.118 24 8.786c0-3.788-2.695-6.947-6.469-6.947Zm2.117 12.342c-1.658 1.85-4.163 3.797-7.648 5.944-3.485-2.147-5.99-4.095-7.648-5.944-1.667-1.86-2.477-3.625-2.477-5.395 0-2.729 1.844-5.072 4.594-5.072 1.4 0 2.594.608 3.549 1.81.763.96 1.085 1.952 1.087 1.959a.937.937 0 0 0 1.79 0c.003-.01.315-.97 1.053-1.916.96-1.23 2.165-1.854 3.583-1.854 2.753 0 4.594 2.346 4.594 5.073 0 1.77-.81 3.535-2.477 5.395Z" fill="#FF525F"/>
</svg>
