<svg width="18" height="19" fill="none" xmlns="http://www.w3.org/2000/svg">
    <g clip-path="url(#a)" fill="#4CAF50">
        <path d="M17.78 6.241a.566.566 0 0 0-.488-.097l-3.663.977c.289-.71.434-1.298.434-1.775C14.063 2.674 11.791.5 9 .5S3.937 2.674 3.937 5.346c0 .478.145 1.064.434 1.775L.708 6.144A.565.565 0 0 0 0 6.687v10.125c0 .255.172.479.417.544l4.22 1.125a.578.578 0 0 0 .14.018l.004.001h.005a.57.57 0 0 0 .14-.02L9 17.396l4.074 1.086a.579.579 0 0 0 .14.018l.004.001h.006a.571.571 0 0 0 .14-.02l4.219-1.124a.562.562 0 0 0 .417-.544V6.688a.563.563 0 0 0-.22-.446ZM4.5 17.281l-3.375-.9V7.42l3.375.9v8.96Zm4.219-.975-3.656.974V8.56c1.333 2.462 3.4 5.105 3.495 5.225.012.015.03.02.043.035.019.02.03.043.051.06.021.016.045.023.067.036v2.39Zm4.219.974-3.657-.975v-2.39c.022-.012.046-.02.067-.035.021-.017.032-.04.05-.06.014-.014.032-.02.044-.035.095-.12 2.162-2.764 3.495-5.226v8.72Zm-.686-9.841v.001C11.334 9.3 9.761 11.487 9 12.508c-.763-1.02-2.334-3.206-3.251-5.068l-.001-.002c-.566-1.148-.686-1.771-.686-2.092C5.063 3.295 6.83 1.625 9 1.625c2.17 0 3.938 1.67 3.938 3.72 0 .322-.12.945-.686 2.094Zm4.623 8.942-3.375.9V8.32l3.375-.9v8.96Z"/>
        <path d="M9 3.594c-1.055 0-1.913.847-1.913 1.888S7.945 7.37 9 7.37c1.055 0 1.912-.847 1.912-1.888S10.055 3.594 9 3.594Zm0 2.651a.777.777 0 0 1-.788-.763c0-.42.354-.763.788-.763.434 0 .787.342.787.763A.776.776 0 0 1 9 6.245Z"/>
    </g>
    <defs>
        <clipPath id="a">
            <path fill="#fff" transform="translate(0 .5)" d="M0 0h18v18H0z"/>
        </clipPath>
    </defs>
</svg>
