<svg width="28" height="40" fill="none" xmlns="http://www.w3.org/2000/svg">
    <path d="M13.972 40c2.645-4.076 13.061-20.543 13.061-26.95C27.033 5.843 21.186 0 13.972 0 6.759 0 .911 5.843.911 13.05c0 6.409 10.416 22.874 13.061 26.95Zm0-32.025a5.077 5.077 0 0 1 5.08 5.075 5.077 5.077 0 0 1-5.08 5.075 5.077 5.077 0 0 1-5.08-5.075 5.083 5.083 0 0 1 5.08-5.075Z" fill="#4CAF50"/>
    <path d="M13.972 7.975a5.077 5.077 0 0 1 5.08 5.075 5.077 5.077 0 0 1-5.08 5.075 5.077 5.077 0 0 1-5.08-5.075 5.083 5.083 0 0 1 5.08-5.075Z" fill="#fff"/>
</svg>
