<svg width="20" height="20" fill="none" xmlns="http://www.w3.org/2000/svg">
    <path d="M14.61 1.532c-1.664 0-3.123.742-4.218 2.145a7.09 7.09 0 0 0-.392.556 7.09 7.09 0 0 0-.392-.556C8.513 2.274 7.054 1.532 5.391 1.532 2.248 1.532 0 4.164 0 7.322c0 3.61 2.96 7.013 9.595 11.033a.781.781 0 0 0 .81 0C17.04 14.335 20 10.932 20 7.32c0-3.156-2.246-5.789-5.39-5.789Zm1.763 10.285c-1.381 1.542-3.469 3.165-6.373 4.954-2.904-1.79-4.992-3.412-6.373-4.954-1.39-1.55-2.064-3.02-2.064-4.496 0-2.273 1.536-4.226 3.828-4.226 1.167 0 2.162.507 2.957 1.508.636.8.904 1.627.906 1.632a.781.781 0 0 0 1.492 0c.002-.007.262-.808.877-1.596.8-1.025 1.805-1.544 2.986-1.544 2.294 0 3.829 1.955 3.829 4.226 0 1.476-.676 2.946-2.065 4.496Z" fill="#4CAF50"/>
</svg>
