<svg width="126" height="30" fill="none" xmlns="http://www.w3.org/2000/svg">
    <path d="M11.476 16c0 1.28-.16 2.432-.48 3.456-.32 1.024-.79 1.893-1.408 2.608-.608.704-1.37 1.248-2.288 1.632-.907.373-1.952.56-3.136.56-1.067 0-2.165-.15-3.296-.448l.192-2.016a.75.75 0 0 1 .208-.464c.128-.128.315-.192.56-.192.181 0 .427.048.736.144.32.085.736.128 1.248.128.683 0 1.285-.101 1.808-.304a3.248 3.248 0 0 0 1.344-.944c.363-.437.635-.992.816-1.664.192-.672.288-1.477.288-2.416V1.024h3.408V16Zm11.175-8.512c1.195 0 2.272.197 3.232.592.97.384 1.792.944 2.464 1.68.683.725 1.206 1.605 1.568 2.64.363 1.024.544 2.176.544 3.456 0 1.28-.181 2.437-.544 3.472-.362 1.035-.885 1.915-1.568 2.64a6.798 6.798 0 0 1-2.464 1.68c-.96.384-2.037.576-3.232.576-1.205 0-2.293-.192-3.264-.576a6.983 6.983 0 0 1-2.464-1.68c-.682-.725-1.21-1.605-1.584-2.64-.362-1.035-.544-2.192-.544-3.472 0-1.28.182-2.432.544-3.456.374-1.035.902-1.915 1.584-2.64a6.714 6.714 0 0 1 2.464-1.68c.97-.395 2.059-.592 3.264-.592Zm0 14.304c1.536 0 2.683-.517 3.44-1.552.758-1.035 1.136-2.49 1.136-4.368 0-1.877-.378-3.333-1.136-4.368-.757-1.045-1.904-1.568-3.44-1.568-1.557 0-2.72.523-3.488 1.568-.757 1.035-1.136 2.49-1.136 4.368 0 1.877.379 3.333 1.136 4.368.768 1.035 1.93 1.552 3.488 1.552ZM47.62 7.744 38.595 28.72a1.316 1.316 0 0 1-.384.544c-.16.128-.395.192-.704.192h-2.32l2.976-6.48L31.49 7.744h2.72c.266 0 .474.064.624.192.15.128.256.272.32.432l4.128 9.76c.085.245.165.496.24.752.085.245.154.49.208.736.074-.256.154-.507.24-.752.085-.256.176-.507.272-.752l3.984-9.744c.074-.181.192-.33.352-.448a.897.897 0 0 1 .544-.176h2.496Z" fill="#4CAF50"/>
    <path d="M80.207 1.024 73.039 24h-3.072l-5.6-17.04a8.039 8.039 0 0 1-.336-1.232c-.117.49-.23.901-.336 1.232L58.031 24h-3.056L47.807 1.024h2.848c.299 0 .55.075.752.224a.97.97 0 0 1 .4.576L56.335 17.2c.085.299.16.624.224.976.075.352.15.72.224 1.104.075-.384.15-.752.224-1.104a9.69 9.69 0 0 1 .288-.976l5.184-15.376c.064-.213.197-.4.4-.56.213-.16.464-.24.752-.24h.976c.299 0 .544.075.736.224.192.15.33.341.416.576L70.927 17.2c.192.587.363 1.253.512 2 .128-.736.267-1.403.416-2l4.544-15.376c.053-.213.187-.4.4-.56.213-.16.464-.24.752-.24h2.656Zm7.694 6.464c1.195 0 2.272.197 3.232.592.97.384 1.792.944 2.464 1.68.683.725 1.206 1.605 1.568 2.64.363 1.024.544 2.176.544 3.456 0 1.28-.181 2.437-.544 3.472-.362 1.035-.885 1.915-1.568 2.64a6.798 6.798 0 0 1-2.464 1.68c-.96.384-2.037.576-3.232.576-1.205 0-2.293-.192-3.264-.576a6.983 6.983 0 0 1-2.464-1.68c-.682-.725-1.21-1.605-1.584-2.64-.362-1.035-.544-2.192-.544-3.472 0-1.28.182-2.432.544-3.456.374-1.035.902-1.915 1.584-2.64a6.714 6.714 0 0 1 2.464-1.68c.97-.395 2.059-.592 3.264-.592Zm0 14.304c1.536 0 2.683-.517 3.44-1.552.758-1.035 1.136-2.49 1.136-4.368 0-1.877-.378-3.333-1.136-4.368-.757-1.045-1.904-1.568-3.44-1.568-1.557 0-2.72.523-3.488 1.568-.757 1.035-1.136 2.49-1.136 4.368 0 1.877.379 3.333 1.136 4.368.768 1.035 1.93 1.552 3.488 1.552Zm14.235-10.928c.523-1.067 1.152-1.904 1.888-2.512.736-.608 1.621-.912 2.656-.912.352 0 .683.043.992.128.32.075.597.192.832.352l-.208 2.352c-.075.288-.251.432-.528.432-.149 0-.373-.027-.672-.08a4.581 4.581 0 0 0-.96-.096 3.65 3.65 0 0 0-1.328.224 3.017 3.017 0 0 0-1.04.64 4.26 4.26 0 0 0-.8 1.04c-.235.405-.453.87-.656 1.392V24h-3.12V7.744h1.792c.341 0 .571.064.688.192.128.117.219.33.272.64l.192 2.288ZM114.031.384v13.808h.736c.224 0 .41-.032.56-.096.149-.064.304-.192.464-.384l4.864-5.36c.149-.203.314-.352.496-.448.181-.107.41-.16.688-.16h2.848l-5.744 6.288c-.31.395-.64.699-.992.912.202.139.378.299.528.48.16.181.314.379.464.592L125.055 24h-2.8c-.256 0-.48-.043-.672-.128-.182-.085-.347-.24-.496-.464l-5.024-6.528c-.16-.245-.32-.4-.48-.464-.16-.075-.4-.112-.72-.112h-.832V24h-3.12V.384h3.12Z" fill="#000"/>
</svg>
