<svg width="8" height="15" fill="none" xmlns="http://www.w3.org/2000/svg">
    <path d="M7.162 7.942 5.76 6.395a.795.795 0 0 1-.172-.425l-.052-1.604v-.047a.449.449 0 0 0-.448-.448H3.17a.667.667 0 0 0-.561.356L.76 8.152a.439.439 0 0 0 .221.591l.273.12a.47.47 0 0 0 .602-.216l.865-1.722v1.73c-.004.01-.01.02-.012.03l-1.463 4.58a.716.716 0 0 0 .499.916l.098.027a.786.786 0 0 0 .94-.512l1.367-4.28.485 1.186c.118.29.246.797.278 1.108l.232 2.186a.659.659 0 0 0 .828.583l.099-.024a.836.836 0 0 0 .618-.898l-.344-2.665a5.255 5.255 0 0 0-.325-1.182l-.464-1.068c-.006-.014-.014-.027-.021-.04v-.724l.835.873a.43.43 0 0 0 .629-.003l.155-.164a.481.481 0 0 0 .006-.642ZM4.254 3.49c.824 0 1.495-.67 1.495-1.495C5.75 1.171 5.08.5 4.254.5c-.825 0-1.495.67-1.495 1.495 0 .825.67 1.496 1.495 1.496Z" fill="#7D7D7D"/>
</svg>
