<svg width="16" height="16" fill="none" xmlns="http://www.w3.org/2000/svg">
    <g clip-path="url(#a)" fill="#4CAF50">
        <path d="M8 0C3.589 0 0 3.589 0 8s3.589 8 8 8 8-3.589 8-8-3.589-8-8-8Zm.548 14.883v-.755a.548.548 0 0 0-1.096 0v.755a6.915 6.915 0 0 1-6.334-6.335h.754a.548.548 0 0 0 0-1.096h-.754a6.915 6.915 0 0 1 6.334-6.334v.754a.548.548 0 0 0 1.096 0v-.754a6.915 6.915 0 0 1 6.335 6.334h-.755a.548.548 0 0 0 0 1.096h.755a6.915 6.915 0 0 1-6.335 6.335Z"/>
        <path d="M9.544 8.225a1.56 1.56 0 0 0-1.77-1.77L5.429 4.66a.548.548 0 0 0-.768.768l1.794 2.346a1.56 1.56 0 0 0 1.771 1.77l2.345 1.794a.547.547 0 0 0 .768-.768L9.544 8.225Z"/>
    </g>
    <defs>
        <clipPath id="a">
            <path fill="#fff" d="M0 0h16v16H0z"/>
        </clipPath>
    </defs>
</svg>
