<svg width="24" height="22" fill="none" xmlns="http://www.w3.org/2000/svg">
    <path d="M17.531.839c-1.996 0-3.746.89-5.06 2.574A8.52 8.52 0 0 0 12 4.08a8.51 8.51 0 0 0-.47-.667C10.215 1.729 8.465.839 6.469.839 2.697.839 0 3.996 0 7.786c0 4.332 3.551 8.416 11.514 13.24a.937.937 0 0 0 .972 0C20.449 16.202 24 12.118 24 7.786 24 3.998 21.305.839 17.531.839Zm2.117 12.342c-1.658 1.85-4.163 3.797-7.648 5.944-3.485-2.147-5.99-4.095-7.648-5.944-1.667-1.86-2.477-3.625-2.477-5.395 0-2.729 1.844-5.072 4.594-5.072 1.4 0 2.594.608 3.549 1.81.763.96 1.085 1.952 1.087 1.959a.937.937 0 0 0 1.79 0c.003-.01.315-.97 1.053-1.916.96-1.23 2.165-1.854 3.583-1.854 2.753 0 4.594 2.346 4.594 5.073 0 1.77-.81 3.535-2.477 5.395Z" fill="#FF525F"/>
    <path d="M19.648 13.18c-1.658 1.85-4.163 3.798-7.648 5.945-3.485-2.147-5.99-4.095-7.648-5.944-1.667-1.86-2.477-3.625-2.477-5.395 0-2.729 1.844-5.072 4.594-5.072 1.4 0 2.594.608 3.549 1.81.763.96 1.085 1.952 1.087 1.959a.937.937 0 0 0 1.79 0c.003-.01.315-.97 1.053-1.916.96-1.23 2.165-1.854 3.583-1.854 2.753 0 4.594 2.346 4.594 5.073 0 1.77-.81 3.535-2.477 5.395Z" fill="#FF525F"/>
</svg>
