<svg width="16" height="16" viewBox="0 0 16 16" fill="none" xmlns="http://www.w3.org/2000/svg">
<path d="M7.19759 15.5C7.1025 15.5001 7.00933 15.4731 6.92903 15.4222C6.84872 15.3713 6.78459 15.2985 6.74418 15.2125C6.70377 15.1264 6.68874 15.0306 6.70085 14.9362C6.71297 14.8419 6.75173 14.753 6.81259 14.68L12.3501 7.99996L6.81259 1.31996C6.73215 1.21742 6.69493 1.08752 6.70885 0.957939C6.72277 0.828357 6.78674 0.709333 6.88713 0.62622C6.98752 0.543107 7.11639 0.502476 7.24629 0.512981C7.37619 0.523485 7.49686 0.584296 7.58259 0.68246L13.3851 7.68246C13.4593 7.77212 13.4999 7.88484 13.4999 8.00121C13.4999 8.11758 13.4593 8.2303 13.3851 8.31996L7.58259 15.32C7.53558 15.3764 7.47671 15.4218 7.41017 15.4529C7.34363 15.484 7.27105 15.5001 7.19759 15.5Z" fill="#4CAF50"/>
<path d="M3.0001 15.5C2.90501 15.5001 2.81184 15.4732 2.73153 15.4222C2.65122 15.3713 2.5871 15.2986 2.54669 15.2125C2.50627 15.1264 2.49124 15.0306 2.50336 14.9363C2.51548 14.842 2.55424 14.753 2.6151 14.68L8.1551 7.99998L2.6151 1.31998C2.57118 1.26969 2.53777 1.21111 2.51686 1.1477C2.49595 1.0843 2.48794 1.01734 2.49333 0.950787C2.49871 0.884235 2.51736 0.819435 2.5482 0.76021C2.57903 0.700985 2.62141 0.648535 2.67284 0.605955C2.72427 0.563375 2.78371 0.531527 2.84764 0.51229C2.91158 0.493053 2.97873 0.486817 3.04511 0.49395C3.1115 0.501083 3.17579 0.52144 3.23418 0.553821C3.29257 0.586201 3.34389 0.629949 3.3851 0.682483L9.1876 7.68248C9.26178 7.77214 9.30237 7.88486 9.30237 8.00123C9.30237 8.1176 9.26178 8.23033 9.1876 8.31998L3.3851 15.32C3.33809 15.3764 3.27922 15.4218 3.21267 15.4529C3.14613 15.484 3.07355 15.5001 3.0001 15.5Z" fill="#4CAF50"/>
</svg>
