<svg width="16" height="16" viewBox="0 0 16 16" fill="none" xmlns="http://www.w3.org/2000/svg">
<path d="M8.80241 15.5C8.8975 15.5001 8.99067 15.4731 9.07097 15.4222C9.15128 15.3713 9.21541 15.2985 9.25582 15.2125C9.29623 15.1264 9.31126 15.0306 9.29915 14.9362C9.28703 14.8419 9.24827 14.753 9.18741 14.68L3.64991 7.99996L9.18741 1.31996C9.26785 1.21742 9.30507 1.08752 9.29115 0.957939C9.27723 0.828357 9.21326 0.709333 9.11287 0.62622C9.01248 0.543107 8.88361 0.502476 8.75371 0.512981C8.62381 0.523485 8.50314 0.584296 8.41741 0.68246L2.61491 7.68246C2.54072 7.77212 2.50013 7.88484 2.50013 8.00121C2.50013 8.11758 2.54072 8.2303 2.61491 8.31996L8.41741 15.32C8.46442 15.3764 8.52329 15.4218 8.58983 15.4529C8.65637 15.484 8.72895 15.5001 8.80241 15.5Z" fill="#7D7D7D"/>
<path d="M12.9999 15.5C13.095 15.5001 13.1882 15.4732 13.2685 15.4222C13.3488 15.3713 13.4129 15.2986 13.4533 15.2125C13.4937 15.1264 13.5088 15.0306 13.4966 14.9363C13.4845 14.842 13.4458 14.753 13.3849 14.68L7.8449 7.99998L13.3849 1.31998C13.4288 1.26969 13.4622 1.21111 13.4831 1.1477C13.5041 1.0843 13.5121 1.01734 13.5067 0.950787C13.5013 0.884235 13.4826 0.819435 13.4518 0.76021C13.421 0.700985 13.3786 0.648535 13.3272 0.605955C13.2757 0.563375 13.2163 0.531527 13.1524 0.51229C13.0884 0.493053 13.0213 0.486817 12.9549 0.49395C12.8885 0.501083 12.8242 0.52144 12.7658 0.553821C12.7074 0.586201 12.6561 0.629949 12.6149 0.682483L6.8124 7.68248C6.73822 7.77214 6.69763 7.88486 6.69763 8.00123C6.69763 8.1176 6.73822 8.23033 6.8124 8.31998L12.6149 15.32C12.6619 15.3764 12.7208 15.4218 12.7873 15.4529C12.8539 15.484 12.9264 15.5001 12.9999 15.5Z" fill="#7D7D7D"/>
</svg>
